<svg width="62" height="53" viewBox="0 0 62 53" fill="none" xmlns="http://www.w3.org/2000/svg">
<path d="M1 26.5C1 33.05 5.2 38.6 11 40.65V12.35C5.2 14.4 1 19.95 1 26.5ZM31 26.5C31 19.95 26.85 14.4 21 12.35V40.65C26.85 38.6 31 33.05 31 26.5Z" fill="#008000"/>
<path d="M11 40.65C12.55 41.2 14.25 41.5 16 41.5C17.75 41.5 19.45 41.2 21 40.65V12.35C19.45 11.8 17.75 11.5 16 11.5C14.25 11.5 12.55 11.8 11 12.35V40.65Z" fill="#F9F9F9"/>
<path d="M48.56 32.5H41.296V20.804H48.56V22.692H43.344V25.7H48.016V27.508H43.344V30.612H48.56V32.5ZM52.7964 32.5H50.7804V20.804H52.8124L58.3004 29.092V20.804H60.3164V32.5H58.3004L52.7964 24.212V32.5Z" fill="white"/>
</svg>
