<svg width="688" height="560" viewBox="0 0 688 560" fill="none" xmlns="http://www.w3.org/2000/svg">
<g clip-path="url(#clip0_60_1885)">
<g clip-path="url(#clip1_60_1885)">
<rect width="281.69" height="609.953" transform="translate(15.7747 78.2723)" fill="white"/>
<path opacity="0.35" d="M268.545 93.2959C268.545 92.397 269.273 91.6683 270.172 91.6683H282.692C283.591 91.6683 284.319 92.397 284.319 93.2959V97.8029C284.319 98.7018 283.591 99.4304 282.692 99.4304H270.172C269.273 99.4304 268.545 98.7018 268.545 97.8029V93.2959Z" stroke="black" stroke-width="0.751174"/>
<path opacity="0.4" d="M285.446 94.047V97.0517C286.051 96.7972 286.444 96.2052 286.444 95.5493C286.444 94.8935 286.051 94.3015 285.446 94.047Z" fill="black"/>
<path d="M269.671 93.7966C269.671 93.2435 270.12 92.795 270.673 92.795H282.191C282.744 92.795 283.193 93.2435 283.193 93.7966V97.3021C283.193 97.8552 282.744 98.3037 282.191 98.3037H270.673C270.12 98.3037 269.671 97.8552 269.671 97.3021V93.7966Z" fill="black"/>
<path fill-rule="evenodd" clip-rule="evenodd" d="M258.652 93.0013C260.316 93.0014 261.917 93.641 263.124 94.7879C263.214 94.8764 263.36 94.8753 263.449 94.7854L264.317 93.909C264.363 93.8634 264.388 93.8016 264.388 93.7373C264.387 93.673 264.361 93.6115 264.315 93.5665C261.149 90.532 256.154 90.532 252.988 93.5665C252.942 93.6115 252.916 93.673 252.915 93.7373C252.915 93.8015 252.94 93.8633 252.985 93.909L253.854 94.7854C253.943 94.8754 254.089 94.8765 254.18 94.7879C255.386 93.6409 256.987 93.0013 258.652 93.0013ZM258.652 95.8526C259.566 95.8525 260.448 96.1924 261.126 96.8063C261.218 96.8934 261.362 96.8915 261.452 96.802L262.319 95.9257C262.365 95.8797 262.39 95.8173 262.39 95.7525C262.389 95.6877 262.362 95.6259 262.316 95.5809C260.251 93.6606 257.054 93.6606 254.99 95.5809C254.943 95.6259 254.917 95.6878 254.916 95.7526C254.915 95.8174 254.941 95.8798 254.987 95.9257L255.854 96.802C255.943 96.8915 256.088 96.8934 256.179 96.8063C256.857 96.1928 257.738 95.8529 258.652 95.8526ZM260.389 97.7709C260.391 97.8359 260.365 97.8985 260.319 97.9441L258.818 99.4582C258.774 99.5027 258.714 99.5277 258.652 99.5277C258.589 99.5277 258.529 99.5027 258.485 99.4582L256.985 97.9441C256.938 97.8985 256.913 97.8358 256.914 97.7709C256.916 97.7059 256.944 97.6443 256.992 97.6008C257.95 96.7903 259.354 96.7903 260.312 97.6008C260.36 97.6444 260.388 97.7059 260.389 97.7709Z" fill="black"/>
<path fill-rule="evenodd" clip-rule="evenodd" d="M248.388 91.543H247.637C247.222 91.543 246.886 91.8793 246.886 92.2941V98.8043C246.886 99.2192 247.222 99.5555 247.637 99.5555H248.388C248.803 99.5555 249.139 99.2192 249.139 98.8043V92.2941C249.139 91.8793 248.803 91.543 248.388 91.543ZM244.131 93.2957H244.883C245.297 93.2957 245.634 93.632 245.634 94.0469V98.8043C245.634 99.2192 245.297 99.5555 244.883 99.5555H244.131C243.717 99.5555 243.38 99.2192 243.38 98.8043V94.0469C243.38 93.632 243.717 93.2957 244.131 93.2957ZM241.377 95.0484H240.626C240.211 95.0484 239.875 95.3847 239.875 95.7996V98.8043C239.875 99.2191 240.211 99.5555 240.626 99.5555H241.377C241.792 99.5555 242.128 99.2191 242.128 98.8043V95.7996C242.128 95.3847 241.792 95.0484 241.377 95.0484ZM237.872 96.5508H237.12C236.706 96.5508 236.369 96.8871 236.369 97.3019V98.8043C236.369 99.2191 236.706 99.5555 237.12 99.5555H237.872C238.286 99.5555 238.623 99.2191 238.623 98.8043V97.3019C238.623 96.8871 238.286 96.5508 237.872 96.5508Z" fill="black"/>
<path d="M43.809 99.4978C45.8281 99.4978 47.0275 97.9188 47.0275 95.2449C47.0275 94.2381 46.835 93.3908 46.4663 92.7361C45.9327 91.7183 45.0139 91.1681 43.853 91.1681C42.1254 91.1681 40.9041 92.329 40.9041 93.9575C40.9041 95.487 42.0044 96.5983 43.5174 96.5983C44.4472 96.5983 45.2009 96.1637 45.575 95.4099H45.5916C45.5916 95.4099 45.6136 95.4099 45.6191 95.4099C45.6301 95.4099 45.6686 95.4099 45.6686 95.4099C45.6686 97.2255 44.9809 98.3094 43.82 98.3094C43.1378 98.3094 42.6096 97.9353 42.428 97.3356H41.0141C41.2507 98.6395 42.3565 99.4978 43.809 99.4978ZM43.8585 95.4705C42.9452 95.4705 42.296 94.8213 42.296 93.9135C42.296 93.0277 42.9782 92.351 43.864 92.351C44.7498 92.351 45.432 93.0387 45.432 93.9355C45.432 94.8213 44.7663 95.4705 43.8585 95.4705Z" fill="black"/>
<path d="M49.3495 99.4207C49.8721 99.4207 50.2298 99.0466 50.2298 98.5515C50.2298 98.0508 49.8721 97.6822 49.3495 97.6822C48.8323 97.6822 48.4692 98.0508 48.4692 98.5515C48.4692 99.0466 48.8323 99.4207 49.3495 99.4207ZM49.3495 95.2944C49.8721 95.2944 50.2298 94.9258 50.2298 94.4306C50.2298 93.93 49.8721 93.5614 49.3495 93.5614C48.8323 93.5614 48.4692 93.93 48.4692 94.4306C48.4692 94.9258 48.8323 95.2944 49.3495 95.2944Z" fill="black"/>
<path d="M55.3796 99.3052H56.7386V97.8252H57.8114V96.6258H56.7386V91.3662H54.7359C53.333 93.4788 52.2161 95.2449 51.5009 96.5598V97.8252H55.3796V99.3052ZM52.8158 96.5763C53.7401 94.9478 54.5654 93.6439 55.3246 92.5215H55.4016V96.6588H52.8158V96.5763Z" fill="black"/>
<path d="M60.8376 99.3052H62.257V91.3662H60.8431L58.7689 92.8186V94.1831L60.7441 92.7966H60.8376V99.3052Z" fill="black"/>
</g>
<path d="M311.294 227.717H312.406C313.02 227.717 313.517 228.217 313.517 228.834V301.762C313.517 302.379 313.02 302.879 312.406 302.879H311.294V227.717Z" fill="#303030"/>
<path d="M2.22253 318.506L1.11076 318.506C0.496752 318.506 -0.00100227 318.006 -0.00100221 317.39L-0.000998392 273.484C-0.000998338 272.867 0.496756 272.368 1.11077 272.368L2.22254 272.368L2.22253 318.506Z" fill="#303030"/>
<path d="M2.22253 257.484L1.11076 257.484C0.496752 257.484 -0.00100227 256.984 -0.00100221 256.368L-0.000998392 212.462C-0.000998338 211.845 0.496756 211.346 1.11077 211.346L2.22254 211.346L2.22253 257.484Z" fill="#333333"/>
<path d="M2.22253 189.021L1.11077 189.021C0.496756 189.021 -0.000999407 188.521 -0.000999353 187.904L-0.000997474 166.323C-0.000997421 165.707 0.496757 165.207 1.11077 165.207L2.22254 165.207L2.22253 189.021Z" fill="#333333"/>
<path fill-rule="evenodd" clip-rule="evenodd" d="M4.58046 97.4236C2.22253 104.71 2.22253 113.713 2.22253 131.719V634.778C2.22253 652.785 2.22253 661.788 4.58046 669.074C9.34598 683.8 20.8449 695.345 35.5117 700.13C42.7686 702.498 51.7357 702.498 69.6697 702.498H243.846C261.78 702.498 270.747 702.498 278.004 700.13C292.671 695.345 304.17 683.8 308.936 669.074C311.293 661.788 311.293 652.785 311.293 634.778V131.719C311.293 113.713 311.293 104.71 308.936 97.4236C304.17 82.6976 292.671 71.1522 278.004 66.3674C270.747 64 261.78 64 243.846 64H69.6697C51.7357 64 42.7686 64 35.5117 66.3674C20.8449 71.1522 9.34598 82.6976 4.58046 97.4236ZM80.7879 82.2322V85.5809L80.8409 85.5793L80.7877 85.953C80.7877 94.7894 87.9222 101.953 96.723 101.953H216.794C225.595 101.953 232.729 94.7894 232.729 85.953L232.676 85.5793L232.729 85.5809V82.2322C232.729 79.9717 234.554 78.1392 236.805 78.1392L246.352 78.1392C261.276 78.1392 268.738 78.1392 274.69 80.3971C284.044 83.9461 291.428 91.36 294.963 100.752C297.211 106.727 297.211 114.22 297.211 129.204V637.294C297.211 652.278 297.211 659.77 294.963 665.746C291.428 675.138 284.044 682.552 274.69 686.101C268.738 688.358 261.276 688.358 246.352 688.358H67.1648C52.2406 688.358 44.7785 688.358 38.8272 686.101C29.4729 682.552 22.0888 675.138 18.5541 665.746C16.3053 659.77 16.3053 652.278 16.3053 637.294V129.204C16.3053 114.22 16.3053 106.727 18.5541 100.752C22.0888 91.36 29.4729 83.9461 38.8272 80.3971C44.7785 78.1392 52.2406 78.1392 67.1649 78.1392L76.7115 78.1392C78.9628 78.1392 80.7879 79.9717 80.7879 82.2322Z" fill="#333333"/>
<path fill-rule="evenodd" clip-rule="evenodd" d="M244.143 65.4884H69.3736C51.6578 65.4884 42.9757 65.4976 35.9702 67.783C21.7547 72.4206 10.6096 83.6107 5.99067 97.8836C3.71443 104.917 3.70529 113.635 3.70529 131.422V635.076C3.70529 652.863 3.71443 661.58 5.99067 668.614C10.6096 682.887 21.7547 694.077 35.9702 698.715C42.9757 701 51.6578 701.009 69.3736 701.009H244.143C261.859 701.009 270.541 701 277.547 698.715C291.762 694.077 302.907 682.887 307.526 668.614C309.803 661.58 309.812 652.863 309.812 635.076V131.422C309.812 113.635 309.803 104.917 307.526 97.8836C302.907 83.6107 291.762 72.4206 277.547 67.783C270.541 65.4976 261.859 65.4884 244.143 65.4884ZM5.28576 97.6536C2.96411 104.828 2.96411 113.692 2.96411 131.422V635.076C2.96411 652.805 2.96411 661.67 5.28576 668.844C9.97797 683.344 21.3 694.711 35.7411 699.422C42.8865 701.754 51.7155 701.754 69.3736 701.754H244.143C261.801 701.754 270.63 701.754 277.776 699.422C292.217 694.711 303.539 683.344 308.231 668.844C310.553 661.67 310.553 652.805 310.553 635.076V131.422C310.553 113.692 310.553 104.828 308.231 97.6536C303.539 83.1542 292.217 71.7864 277.776 67.0753C270.63 64.7443 261.801 64.7443 244.143 64.7443H69.3736C51.7155 64.7443 42.8865 64.7443 35.7411 67.0753C21.3 71.7864 9.97797 83.1542 5.28576 97.6536Z" fill="#303030"/>
<path fill-rule="evenodd" clip-rule="evenodd" d="M8.10697 98.5733C5.93042 105.299 5.93042 113.61 5.93042 130.231V636.266C5.93042 652.888 5.93042 661.198 8.10697 667.924C12.5059 681.517 23.1203 692.175 36.6589 696.591C43.3576 698.777 51.6348 698.777 68.1893 698.777H245.331C261.885 698.777 270.162 698.777 276.861 696.591C290.4 692.175 301.014 681.517 305.413 667.924C307.59 661.198 307.59 652.888 307.59 636.266V130.231C307.59 113.61 307.59 105.299 305.413 98.5733C301.014 84.9801 290.4 74.3229 276.861 69.9062C270.162 67.7208 261.885 67.7208 245.331 67.7208H68.1893C51.6348 67.7208 43.3576 67.7208 36.6589 69.9062C23.1203 74.3229 12.5059 84.9801 8.10697 98.5733ZM80.7891 82.2321V85.5809L80.842 85.5792L80.7888 85.953C80.7888 94.7893 87.9233 101.953 96.7242 101.953H216.795C225.596 101.953 232.73 94.7893 232.73 85.953L232.677 85.5792L232.73 85.5809V82.2321C232.73 79.9717 234.555 78.1392 236.806 78.1392L246.353 78.1392C261.277 78.1392 268.739 78.1392 274.691 80.3971C284.045 83.946 291.429 91.36 294.964 100.752C297.213 106.727 297.213 114.22 297.213 129.204V637.293C297.213 652.278 297.213 659.77 294.964 665.746C291.429 675.138 284.045 682.552 274.691 686.101C268.739 688.358 261.277 688.358 246.353 688.358H67.166C52.2418 688.358 44.7797 688.358 38.8283 686.101C29.4741 682.552 22.0899 675.138 18.5552 665.746C16.3064 659.77 16.3064 652.278 16.3064 637.293V129.204C16.3064 114.22 16.3064 106.727 18.5552 100.752C22.0899 91.36 29.4741 83.946 38.8283 80.3971C44.7797 78.1392 52.2418 78.1392 67.166 78.1392L76.7126 78.1392C78.964 78.1392 80.7891 79.9717 80.7891 82.2321Z" fill="#121515"/>
<rect x="245.33" y="64" width="4.44705" height="3.72085" fill="#414141"/>
<rect x="307.589" y="127.999" width="3.70594" height="4.46502" fill="#414141"/>
<rect x="2.22363" y="127.999" width="3.70589" height="4.46502" fill="#414141"/>
<path fill-rule="evenodd" clip-rule="evenodd" d="M188.259 93.7668C191.534 93.7668 194.188 91.1014 194.188 87.8135C194.188 84.5255 191.534 81.8601 188.259 81.8601C184.984 81.8601 182.33 84.5255 182.33 87.8135C182.33 91.1014 184.984 93.7668 188.259 93.7668Z" fill="#262C2D"/>
<path fill-rule="evenodd" clip-rule="evenodd" d="M188.258 91.5344C190.305 91.5344 191.964 89.8685 191.964 87.8135C191.964 85.7585 190.305 84.0927 188.258 84.0927C186.212 84.0927 184.552 85.7585 184.552 87.8135C184.552 89.8685 186.212 91.5344 188.258 91.5344Z" fill="#121515"/>
<path opacity="0.4" fill-rule="evenodd" clip-rule="evenodd" d="M188.26 87.07C188.669 87.07 189.001 86.7366 189.001 86.3254C189.001 85.9143 188.669 85.5809 188.26 85.5809C187.85 85.5809 187.518 85.9143 187.518 86.3254C187.518 86.7366 187.85 87.07 188.26 87.07Z" fill="#636F73"/>
<path fill-rule="evenodd" clip-rule="evenodd" d="M138.601 87.8134C138.601 86.5805 139.6 85.5809 140.833 85.5809H172.686C173.919 85.5809 174.918 86.5805 174.918 87.8134C174.918 89.0464 173.919 90.046 172.686 90.046H140.833C139.6 90.046 138.601 89.0464 138.601 87.8134Z" fill="#262C2D"/>
<g filter="url(#filter0_dd_60_1885)">
<g clip-path="url(#clip2_60_1885)">
<rect width="281.69" height="609.953" transform="translate(277.775 14.2723)" fill="white"/>
<path opacity="0.35" d="M530.545 29.2957C530.545 28.3969 531.273 27.6682 532.172 27.6682H544.692C545.591 27.6682 546.319 28.3969 546.319 29.2957V33.8028C546.319 34.7016 545.591 35.4303 544.692 35.4303H532.172C531.273 35.4303 530.545 34.7016 530.545 33.8028V29.2957Z" stroke="black" stroke-width="0.751174"/>
<path opacity="0.4" d="M547.446 30.0468V33.0515C548.051 32.797 548.444 32.205 548.444 31.5492C548.444 30.8933 548.051 30.3013 547.446 30.0468Z" fill="black"/>
<path d="M531.671 29.7965C531.671 29.2433 532.12 28.7949 532.673 28.7949H544.191C544.744 28.7949 545.193 29.2433 545.193 29.7965V33.302C545.193 33.8551 544.744 34.3035 544.191 34.3035H532.673C532.12 34.3035 531.671 33.8551 531.671 33.302V29.7965Z" fill="black"/>
<path fill-rule="evenodd" clip-rule="evenodd" d="M520.652 29.0013C522.316 29.0013 523.917 29.6409 525.124 30.7878C525.214 30.8763 525.36 30.8752 525.449 30.7853L526.317 29.9089C526.363 29.8633 526.388 29.8015 526.388 29.7372C526.387 29.673 526.361 29.6115 526.315 29.5664C523.149 26.532 518.154 26.532 514.988 29.5664C514.942 29.6114 514.916 29.6729 514.915 29.7372C514.915 29.8015 514.94 29.8633 514.985 29.9089L515.854 30.7853C515.943 30.8754 516.089 30.8765 516.18 30.7878C517.386 29.6408 518.987 29.0013 520.652 29.0013ZM520.652 31.8525C521.566 31.8524 522.448 32.1924 523.126 32.8062C523.218 32.8934 523.362 32.8915 523.452 32.802L524.319 31.9256C524.365 31.8796 524.39 31.8173 524.39 31.7525C524.389 31.6877 524.362 31.6258 524.316 31.5808C522.251 29.6605 519.054 29.6605 516.99 31.5808C516.943 31.6258 516.917 31.6877 516.916 31.7525C516.915 31.8173 516.941 31.8797 516.987 31.9256L517.854 32.802C517.943 32.8915 518.088 32.8934 518.179 32.8062C518.857 32.1928 519.738 31.8529 520.652 31.8525ZM522.389 33.7708C522.391 33.8358 522.365 33.8985 522.319 33.944L520.818 35.4581C520.774 35.5026 520.714 35.5277 520.652 35.5277C520.589 35.5277 520.529 35.5026 520.485 35.4581L518.985 33.944C518.938 33.8984 518.913 33.8358 518.914 33.7708C518.916 33.7058 518.944 33.6443 518.992 33.6007C519.95 32.7903 521.354 32.7903 522.312 33.6007C522.36 33.6443 522.388 33.7059 522.389 33.7708Z" fill="black"/>
<path fill-rule="evenodd" clip-rule="evenodd" d="M510.388 27.543H509.637C509.222 27.543 508.886 27.8793 508.886 28.2941V34.8043C508.886 35.2192 509.222 35.5555 509.637 35.5555H510.388C510.803 35.5555 511.139 35.2192 511.139 34.8043V28.2941C511.139 27.8793 510.803 27.543 510.388 27.543ZM506.131 29.2957H506.883C507.297 29.2957 507.634 29.632 507.634 30.0469V34.8043C507.634 35.2192 507.297 35.5555 506.883 35.5555H506.131C505.717 35.5555 505.38 35.2192 505.38 34.8043V30.0469C505.38 29.632 505.717 29.2957 506.131 29.2957ZM503.377 31.0484H502.626C502.211 31.0484 501.875 31.3847 501.875 31.7996V34.8043C501.875 35.2191 502.211 35.5555 502.626 35.5555H503.377C503.792 35.5555 504.128 35.2191 504.128 34.8043V31.7996C504.128 31.3847 503.792 31.0484 503.377 31.0484ZM499.872 32.5508H499.12C498.706 32.5508 498.369 32.8871 498.369 33.3019V34.8043C498.369 35.2191 498.706 35.5555 499.12 35.5555H499.872C500.286 35.5555 500.623 35.2191 500.623 34.8043V33.3019C500.623 32.8871 500.286 32.5508 499.872 32.5508Z" fill="black"/>
<path d="M305.809 35.4976C307.828 35.4976 309.028 33.9186 309.028 31.2448C309.028 30.238 308.835 29.3907 308.466 28.736C307.933 27.7181 307.014 27.168 305.853 27.168C304.125 27.168 302.904 28.3288 302.904 29.9574C302.904 31.4869 304.004 32.5982 305.517 32.5982C306.447 32.5982 307.201 32.1636 307.575 31.4098H307.592C307.592 31.4098 307.614 31.4098 307.619 31.4098C307.63 31.4098 307.669 31.4098 307.669 31.4098C307.669 33.2254 306.981 34.3093 305.82 34.3093C305.138 34.3093 304.61 33.9351 304.428 33.3354H303.014C303.251 34.6394 304.357 35.4976 305.809 35.4976ZM305.858 31.4703C304.945 31.4703 304.296 30.8211 304.296 29.9133C304.296 29.0276 304.978 28.3508 305.864 28.3508C306.75 28.3508 307.432 29.0386 307.432 29.9354C307.432 30.8211 306.766 31.4703 305.858 31.4703Z" fill="black"/>
<path d="M311.349 35.4206C311.872 35.4206 312.23 35.0465 312.23 34.5513C312.23 34.0507 311.872 33.6821 311.349 33.6821C310.832 33.6821 310.469 34.0507 310.469 34.5513C310.469 35.0465 310.832 35.4206 311.349 35.4206ZM311.349 31.2943C311.872 31.2943 312.23 30.9257 312.23 30.4305C312.23 29.9299 311.872 29.5612 311.349 29.5612C310.832 29.5612 310.469 29.9299 310.469 30.4305C310.469 30.9257 310.832 31.2943 311.349 31.2943Z" fill="black"/>
<path d="M317.38 35.3051H318.739V33.8251H319.811V32.6257H318.739V27.366H316.736C315.333 29.4787 314.216 31.2448 313.501 32.5597V33.8251H317.38V35.3051ZM314.816 32.5762C315.74 30.9477 316.565 29.6438 317.325 28.5214H317.402V32.6587H314.816V32.5762Z" fill="black"/>
<path d="M322.838 35.3051H324.257V27.366H322.843L320.769 28.8185V30.1829L322.744 28.7965H322.838V35.3051Z" fill="black"/>
</g>
<path d="M573.294 163.717H574.406C575.02 163.717 575.517 164.217 575.517 164.834V237.762C575.517 238.379 575.02 238.879 574.406 238.879H573.294V163.717Z" fill="#303030"/>
<path d="M264.223 254.506L263.111 254.506C262.497 254.506 261.999 254.006 261.999 253.39L261.999 209.484C261.999 208.867 262.497 208.368 263.111 208.368L264.223 208.368L264.223 254.506Z" fill="#303030"/>
<path d="M264.223 193.484L263.111 193.484C262.497 193.484 261.999 192.984 261.999 192.368L261.999 148.462C261.999 147.845 262.497 147.346 263.111 147.346L264.223 147.346L264.223 193.484Z" fill="#333333"/>
<path d="M264.223 125.021L263.111 125.021C262.497 125.021 261.999 124.521 261.999 123.904L261.999 102.323C261.999 101.707 262.497 101.207 263.111 101.207L264.223 101.207L264.223 125.021Z" fill="#333333"/>
<path fill-rule="evenodd" clip-rule="evenodd" d="M266.58 33.4236C264.223 40.7098 264.223 49.713 264.223 67.7195V570.778C264.223 588.785 264.223 597.788 266.58 605.074C271.346 619.8 282.845 631.345 297.512 636.13C304.769 638.498 313.736 638.498 331.67 638.498H505.846C523.78 638.498 532.747 638.498 540.004 636.13C554.671 631.345 566.17 619.8 570.936 605.074C573.293 597.788 573.293 588.785 573.293 570.778V67.7194C573.293 49.713 573.293 40.7098 570.936 33.4236C566.17 18.6976 554.671 7.15221 540.004 2.36745C532.747 0 523.78 0 505.846 0H331.67C313.736 0 304.769 0 297.512 2.36745C282.845 7.15221 271.346 18.6976 266.58 33.4236ZM342.788 18.2322V21.5809L342.841 21.5793L342.788 21.953C342.788 30.7894 349.922 37.9526 358.723 37.9526H478.794C487.595 37.9526 494.729 30.7894 494.729 21.953L494.676 21.5793L494.729 21.5809V18.2322C494.729 15.9717 496.554 14.1392 498.805 14.1392L508.352 14.1392C523.276 14.1392 530.738 14.1392 536.69 16.3971C546.044 19.9461 553.428 27.36 556.963 36.7521C559.211 42.7274 559.211 50.2197 559.211 65.2041V573.294C559.211 588.278 559.211 595.77 556.963 601.746C553.428 611.138 546.044 618.552 536.69 622.101C530.738 624.358 523.276 624.358 508.352 624.358H329.165C314.241 624.358 306.779 624.358 300.827 622.101C291.473 618.552 284.089 611.138 280.554 601.746C278.305 595.77 278.305 588.278 278.305 573.294V65.2041C278.305 50.2197 278.305 42.7274 280.554 36.7521C284.089 27.36 291.473 19.9461 300.827 16.3971C306.779 14.1392 314.241 14.1392 329.165 14.1392L338.711 14.1392C340.963 14.1392 342.788 15.9717 342.788 18.2322Z" fill="#333333"/>
<path fill-rule="evenodd" clip-rule="evenodd" d="M506.143 1.48849H331.374C313.658 1.48849 304.976 1.49767 297.97 3.7831C283.755 8.42063 272.61 19.6108 267.991 33.8836C265.714 40.9174 265.705 49.6346 265.705 67.4219V571.076C265.705 588.863 265.714 597.58 267.991 604.614C272.61 618.887 283.755 630.077 297.97 634.715C304.976 637 313.658 637.009 331.374 637.009H506.143C523.859 637.009 532.541 637 539.547 634.715C553.762 630.077 564.907 618.887 569.526 604.614C571.803 597.58 571.812 588.863 571.812 571.076V67.4219C571.812 49.6346 571.803 40.9174 569.526 33.8836C564.907 19.6108 553.762 8.42063 539.547 3.7831C532.541 1.49767 523.859 1.48849 506.143 1.48849ZM267.286 33.6537C264.964 40.8278 264.964 49.6925 264.964 67.4219V571.076C264.964 588.805 264.964 597.67 267.286 604.844C271.978 619.344 283.3 630.711 297.741 635.423C304.886 637.754 313.716 637.754 331.374 637.754H506.143C523.801 637.754 532.63 637.754 539.776 635.423C554.217 630.711 565.539 619.344 570.231 604.844C572.553 597.67 572.553 588.805 572.553 571.076V67.4219C572.553 49.6925 572.553 40.8278 570.231 33.6537C565.539 19.1543 554.217 7.7865 539.776 3.07535C532.63 0.744324 523.801 0.744324 506.143 0.744324H331.374C313.716 0.744324 304.886 0.744324 297.741 3.07535C283.3 7.7865 271.978 19.1543 267.286 33.6537Z" fill="#303030"/>
<path fill-rule="evenodd" clip-rule="evenodd" d="M270.107 34.5733C267.93 41.2991 267.93 49.6098 267.93 66.2311V572.266C267.93 588.888 267.93 597.198 270.107 603.924C274.506 617.517 285.12 628.175 298.659 632.591C305.358 634.777 313.635 634.777 330.189 634.777H507.331C523.885 634.777 532.162 634.777 538.861 632.591C552.4 628.175 563.014 617.517 567.413 603.924C569.59 597.198 569.59 588.888 569.59 572.266V66.2311C569.59 49.6098 569.59 41.2991 567.413 34.5733C563.014 20.9801 552.4 10.3229 538.861 5.90616C532.162 3.72083 523.885 3.72083 507.331 3.72083H330.189C313.635 3.72083 305.358 3.72083 298.659 5.90616C285.12 10.3229 274.506 20.9801 270.107 34.5733ZM342.789 18.2321V21.5809L342.842 21.5792L342.789 21.953C342.789 30.7893 349.923 37.9526 358.724 37.9526H478.795C487.596 37.9526 494.73 30.7893 494.73 21.953L494.677 21.5792L494.73 21.5809V18.2321C494.73 15.9717 496.555 14.1392 498.806 14.1392L508.353 14.1392C523.277 14.1392 530.739 14.1392 536.691 16.3971C546.045 19.946 553.429 27.36 556.964 36.752C559.213 42.7274 559.213 50.2196 559.213 65.2041V573.293C559.213 588.278 559.213 595.77 556.964 601.746C553.429 611.138 546.045 618.552 536.691 622.101C530.739 624.358 523.277 624.358 508.353 624.358H329.166C314.242 624.358 306.78 624.358 300.828 622.101C291.474 618.552 284.09 611.138 280.555 601.746C278.306 595.77 278.306 588.278 278.306 573.293V65.2041C278.306 50.2196 278.306 42.7274 280.555 36.752C284.09 27.36 291.474 19.946 300.828 16.3971C306.78 14.1392 314.242 14.1392 329.166 14.1392L338.713 14.1392C340.964 14.1392 342.789 15.9717 342.789 18.2321Z" fill="#121515"/>
<rect x="507.33" width="4.44705" height="3.72085" fill="#414141"/>
<rect x="569.589" y="63.9985" width="3.70594" height="4.46502" fill="#414141"/>
<rect x="264.224" y="63.9985" width="3.70589" height="4.46502" fill="#414141"/>
<path fill-rule="evenodd" clip-rule="evenodd" d="M450.259 29.7668C453.534 29.7668 456.188 27.1014 456.188 23.8135C456.188 20.5255 453.534 17.8601 450.259 17.8601C446.984 17.8601 444.33 20.5255 444.33 23.8135C444.33 27.1014 446.984 29.7668 450.259 29.7668Z" fill="#262C2D"/>
<path fill-rule="evenodd" clip-rule="evenodd" d="M450.258 27.5343C452.305 27.5343 453.964 25.8684 453.964 23.8134C453.964 21.7585 452.305 20.0926 450.258 20.0926C448.212 20.0926 446.552 21.7585 446.552 23.8134C446.552 25.8684 448.212 27.5343 450.258 27.5343Z" fill="#121515"/>
<path opacity="0.4" fill-rule="evenodd" clip-rule="evenodd" d="M450.259 23.07C450.669 23.07 451.001 22.7366 451.001 22.3254C451.001 21.9143 450.669 21.5809 450.259 21.5809C449.85 21.5809 449.518 21.9143 449.518 22.3254C449.518 22.7366 449.85 23.07 450.259 23.07Z" fill="#636F73"/>
<path fill-rule="evenodd" clip-rule="evenodd" d="M400.601 23.8134C400.601 22.5805 401.6 21.5809 402.833 21.5809H434.686C435.919 21.5809 436.918 22.5805 436.918 23.8134C436.918 25.0464 435.919 26.046 434.686 26.046H402.833C401.6 26.046 400.601 25.0464 400.601 23.8134Z" fill="#262C2D"/>
</g>
</g>
<defs>
<filter id="filter0_dd_60_1885" x="240.966" y="-21.0329" width="404.132" height="730.141" filterUnits="userSpaceOnUse" color-interpolation-filters="sRGB">
<feFlood flood-opacity="0" result="BackgroundImageFix"/>
<feColorMatrix in="SourceAlpha" type="matrix" values="0 0 0 0 0 0 0 0 0 0 0 0 0 0 0 0 0 0 127 0" result="hardAlpha"/>
<feMorphology radius="1.50235" operator="erode" in="SourceAlpha" result="effect1_dropShadow_60_1885"/>
<feOffset dx="12.0188" dy="12.0188"/>
<feGaussianBlur stdDeviation="12.0188"/>
<feColorMatrix type="matrix" values="0 0 0 0 0.0627451 0 0 0 0 0.0941176 0 0 0 0 0.156863 0 0 0 0.08 0"/>
<feBlend mode="normal" in2="BackgroundImageFix" result="effect1_dropShadow_60_1885"/>
<feColorMatrix in="SourceAlpha" type="matrix" values="0 0 0 0 0 0 0 0 0 0 0 0 0 0 0 0 0 0 127 0" result="hardAlpha"/>
<feMorphology radius="3.00469" operator="erode" in="SourceAlpha" result="effect2_dropShadow_60_1885"/>
<feOffset dx="24.0376" dy="24.0376"/>
<feGaussianBlur stdDeviation="24.0376"/>
<feColorMatrix type="matrix" values="0 0 0 0 0.0627451 0 0 0 0 0.0941176 0 0 0 0 0.156863 0 0 0 0.2 0"/>
<feBlend mode="normal" in2="effect1_dropShadow_60_1885" result="effect2_dropShadow_60_1885"/>
<feBlend mode="normal" in="SourceGraphic" in2="effect2_dropShadow_60_1885" result="shape"/>
</filter>
<clipPath id="clip0_60_1885">
<rect width="720" height="560" fill="white"/>
</clipPath>
<clipPath id="clip1_60_1885">
<rect width="281.69" height="609.953" fill="white" transform="translate(15.7747 78.2723)"/>
</clipPath>
<clipPath id="clip2_60_1885">
<rect width="281.69" height="609.953" fill="white" transform="translate(277.775 14.2723)"/>
</clipPath>
</defs>
</svg>
