<svg width="598" height="512" viewBox="0 0 598 512" fill="none" xmlns="http://www.w3.org/2000/svg">
<g clip-path="url(#clip0_222_330)">
<rect width="281.69" height="609.953" transform="translate(63.7747 126.272)" fill="white"/>
<path opacity="0.35" d="M316.545 141.296C316.545 140.397 317.273 139.668 318.172 139.668H330.692C331.591 139.668 332.319 140.397 332.319 141.296V145.803C332.319 146.702 331.591 147.43 330.692 147.43H318.172C317.273 147.43 316.545 146.702 316.545 145.803V141.296Z" stroke="black" stroke-width="0.751174"/>
<path opacity="0.4" d="M333.446 142.047V145.052C334.051 144.797 334.444 144.205 334.444 143.549C334.444 142.893 334.051 142.301 333.446 142.047Z" fill="black"/>
<path d="M317.671 141.796C317.671 141.243 318.12 140.795 318.673 140.795H330.191C330.744 140.795 331.193 141.243 331.193 141.796V145.302C331.193 145.855 330.744 146.304 330.191 146.304H318.673C318.12 146.304 317.671 145.855 317.671 145.302V141.796Z" fill="black"/>
<path fill-rule="evenodd" clip-rule="evenodd" d="M306.652 141.001C308.316 141.001 309.917 141.641 311.124 142.788C311.214 142.876 311.36 142.875 311.449 142.785L312.317 141.909C312.363 141.863 312.388 141.801 312.388 141.737C312.387 141.673 312.361 141.611 312.315 141.566C309.149 138.532 304.154 138.532 300.988 141.566C300.942 141.611 300.916 141.673 300.915 141.737C300.915 141.801 300.94 141.863 300.985 141.909L301.854 142.785C301.943 142.875 302.089 142.876 302.18 142.788C303.386 141.641 304.987 141.001 306.652 141.001ZM306.652 143.852C307.566 143.852 308.448 144.192 309.126 144.806C309.218 144.893 309.362 144.891 309.452 144.802L310.319 143.926C310.365 143.88 310.39 143.817 310.39 143.752C310.389 143.688 310.362 143.626 310.316 143.581C308.251 141.66 305.054 141.66 302.99 143.581C302.943 143.626 302.917 143.688 302.916 143.752C302.915 143.817 302.941 143.88 302.987 143.926L303.854 144.802C303.943 144.891 304.088 144.893 304.179 144.806C304.857 144.193 305.738 143.853 306.652 143.852ZM308.389 145.771C308.391 145.836 308.365 145.898 308.319 145.944L306.818 147.458C306.774 147.503 306.714 147.528 306.652 147.528C306.589 147.528 306.529 147.503 306.485 147.458L304.985 145.944C304.938 145.898 304.913 145.836 304.914 145.771C304.916 145.706 304.944 145.644 304.992 145.601C305.95 144.79 307.354 144.79 308.312 145.601C308.36 145.644 308.388 145.706 308.389 145.771Z" fill="black"/>
<path fill-rule="evenodd" clip-rule="evenodd" d="M296.388 139.543H295.637C295.222 139.543 294.886 139.879 294.886 140.294V146.804C294.886 147.219 295.222 147.555 295.637 147.555H296.388C296.803 147.555 297.139 147.219 297.139 146.804V140.294C297.139 139.879 296.803 139.543 296.388 139.543ZM292.131 141.296H292.883C293.297 141.296 293.634 141.632 293.634 142.047V146.804C293.634 147.219 293.297 147.555 292.883 147.555H292.131C291.717 147.555 291.38 147.219 291.38 146.804V142.047C291.38 141.632 291.717 141.296 292.131 141.296ZM289.377 143.048H288.626C288.211 143.048 287.875 143.385 287.875 143.8V146.804C287.875 147.219 288.211 147.556 288.626 147.556H289.377C289.792 147.556 290.128 147.219 290.128 146.804V143.8C290.128 143.385 289.792 143.048 289.377 143.048ZM285.872 144.551H285.12C284.706 144.551 284.369 144.887 284.369 145.302V146.804C284.369 147.219 284.706 147.556 285.12 147.556H285.872C286.286 147.556 286.623 147.219 286.623 146.804V145.302C286.623 144.887 286.286 144.551 285.872 144.551Z" fill="black"/>
<path d="M91.809 147.498C93.8281 147.498 95.0275 145.919 95.0275 143.245C95.0275 142.238 94.835 141.391 94.4663 140.736C93.9327 139.718 93.0139 139.168 91.853 139.168C90.1254 139.168 88.9041 140.329 88.9041 141.957C88.9041 143.487 90.0044 144.598 91.5174 144.598C92.4472 144.598 93.2009 144.164 93.575 143.41H93.5916C93.5916 143.41 93.6136 143.41 93.6191 143.41C93.6301 143.41 93.6686 143.41 93.6686 143.41C93.6686 145.225 92.9809 146.309 91.82 146.309C91.1378 146.309 90.6096 145.935 90.428 145.335H89.0141C89.2507 146.639 90.3565 147.498 91.809 147.498ZM91.8585 143.47C90.9452 143.47 90.296 142.821 90.296 141.913C90.296 141.028 90.9782 140.351 91.864 140.351C92.7498 140.351 93.432 141.039 93.432 141.935C93.432 142.821 92.7663 143.47 91.8585 143.47Z" fill="black"/>
<path d="M97.3495 147.421C97.8721 147.421 98.2298 147.046 98.2298 146.551C98.2298 146.051 97.8721 145.682 97.3495 145.682C96.8323 145.682 96.4692 146.051 96.4692 146.551C96.4692 147.046 96.8323 147.421 97.3495 147.421ZM97.3495 143.294C97.8721 143.294 98.2298 142.926 98.2298 142.431C98.2298 141.93 97.8721 141.561 97.3495 141.561C96.8323 141.561 96.4692 141.93 96.4692 142.431C96.4692 142.926 96.8323 143.294 97.3495 143.294Z" fill="black"/>
<path d="M103.38 147.305H104.739V145.825H105.811V144.626H104.739V139.366H102.736C101.333 141.479 100.216 143.245 99.5009 144.56V145.825H103.38V147.305ZM100.816 144.576C101.74 142.948 102.565 141.644 103.325 140.521H103.402V144.659H100.816V144.576Z" fill="black"/>
<path d="M108.838 147.305H110.257V139.366H108.843L106.769 140.818V142.183L108.744 140.796H108.838V147.305Z" fill="black"/>
</g>
<path d="M359.294 275.717H360.406C361.02 275.717 361.517 276.217 361.517 276.834V349.762C361.517 350.379 361.02 350.878 360.406 350.878H359.294V275.717Z" fill="#303030"/>
<path d="M50.2225 366.506L49.1108 366.506C48.4968 366.506 47.999 366.006 47.999 365.39L47.999 321.484C47.999 320.867 48.4968 320.368 49.1108 320.368L50.2225 320.368L50.2225 366.506Z" fill="#303030"/>
<path d="M50.2225 305.484L49.1108 305.484C48.4968 305.484 47.999 304.984 47.999 304.368L47.999 260.462C47.999 259.845 48.4968 259.345 49.1108 259.345L50.2225 259.345L50.2225 305.484Z" fill="#333333"/>
<path d="M50.2225 237.021L49.1108 237.021C48.4968 237.021 47.999 236.521 47.999 235.904L47.999 214.323C47.999 213.707 48.4968 213.207 49.1108 213.207L50.2225 213.207L50.2225 237.021Z" fill="#333333"/>
<path fill-rule="evenodd" clip-rule="evenodd" d="M52.5805 145.424C50.2225 152.71 50.2225 161.713 50.2225 179.719V682.778C50.2225 700.785 50.2225 709.788 52.5805 717.074C57.346 731.8 68.8449 743.345 83.5117 748.13C90.7686 750.498 99.7357 750.498 117.67 750.498H291.846C309.78 750.498 318.747 750.498 326.004 748.13C340.671 743.345 352.17 731.8 356.936 717.074C359.293 709.788 359.293 700.785 359.293 682.778V179.719C359.293 161.713 359.293 152.71 356.936 145.424C352.17 130.698 340.671 119.152 326.004 114.367C318.747 112 309.78 112 291.846 112H117.67C99.7357 112 90.7686 112 83.5117 114.367C68.8449 119.152 57.346 130.698 52.5805 145.424ZM128.788 130.232V133.581L128.841 133.579L128.788 133.953C128.788 142.789 135.922 149.953 144.723 149.953H264.794C273.595 149.953 280.729 142.789 280.729 133.953L280.676 133.579L280.729 133.581V130.232C280.729 127.972 282.554 126.139 284.805 126.139L294.352 126.139C309.276 126.139 316.738 126.139 322.69 128.397C332.044 131.946 339.428 139.36 342.963 148.752C345.211 154.727 345.211 162.22 345.211 177.204V685.294C345.211 700.278 345.211 707.77 342.963 713.746C339.428 723.138 332.044 730.552 322.69 734.101C316.738 736.358 309.276 736.358 294.352 736.358H115.165C100.241 736.358 92.7785 736.358 86.8272 734.101C77.4729 730.552 70.0888 723.138 66.5541 713.746C64.3053 707.77 64.3053 700.278 64.3053 685.294V177.204C64.3053 162.22 64.3053 154.727 66.5541 148.752C70.0888 139.36 77.4729 131.946 86.8272 128.397C92.7785 126.139 100.241 126.139 115.165 126.139L124.711 126.139C126.963 126.139 128.788 127.972 128.788 130.232Z" fill="#333333"/>
<path fill-rule="evenodd" clip-rule="evenodd" d="M292.143 113.489H117.374C99.6578 113.489 90.9757 113.498 83.9702 115.783C69.7547 120.421 58.6096 131.611 53.9907 145.884C51.7144 152.917 51.7053 161.635 51.7053 179.422V683.076C51.7053 700.863 51.7144 709.581 53.9907 716.614C58.6096 730.887 69.7547 742.077 83.9702 746.715C90.9757 749 99.6578 749.009 117.374 749.009H292.143C309.859 749.009 318.541 749 325.547 746.715C339.762 742.077 350.907 730.887 355.526 716.614C357.803 709.581 357.812 700.863 357.812 683.076V179.422C357.812 161.635 357.803 152.917 355.526 145.884C350.907 131.611 339.762 120.421 325.547 115.783C318.541 113.498 309.859 113.489 292.143 113.489ZM53.2858 145.654C50.9641 152.828 50.9641 161.693 50.9641 179.422V683.076C50.9641 700.805 50.9641 709.67 53.2858 716.844C57.978 731.344 69.3 742.711 83.7411 747.423C90.8865 749.754 99.7155 749.754 117.374 749.754H292.143C309.801 749.754 318.63 749.754 325.776 747.423C340.217 742.711 351.539 731.344 356.231 716.844C358.553 709.67 358.553 700.805 358.553 683.076V179.422C358.553 161.693 358.553 152.828 356.231 145.654C351.539 131.154 340.217 119.787 325.776 115.075C318.63 112.744 309.801 112.744 292.143 112.744H117.374C99.7155 112.744 90.8865 112.744 83.7411 115.075C69.3 119.787 57.978 131.154 53.2858 145.654Z" fill="#303030"/>
<path fill-rule="evenodd" clip-rule="evenodd" d="M56.107 146.573C53.9304 153.299 53.9304 161.61 53.9304 178.231V684.267C53.9304 700.888 53.9304 709.199 56.107 715.924C60.5059 729.518 71.1203 740.175 84.6589 744.591C91.3576 746.777 99.6348 746.777 116.189 746.777H293.331C309.885 746.777 318.162 746.777 324.861 744.591C338.4 740.175 349.014 729.518 353.413 715.924C355.59 709.199 355.59 700.888 355.59 684.267V178.231C355.59 161.61 355.59 153.299 353.413 146.573C349.014 132.98 338.4 122.323 324.861 117.906C318.162 115.721 309.885 115.721 293.331 115.721H116.189C99.6348 115.721 91.3576 115.721 84.6589 117.906C71.1203 122.323 60.5059 132.98 56.107 146.573ZM128.789 130.232V133.581L128.842 133.579L128.789 133.953C128.789 142.789 135.923 149.953 144.724 149.953H264.795C273.596 149.953 280.73 142.789 280.73 133.953L280.677 133.579L280.73 133.581V130.232C280.73 127.972 282.555 126.139 284.806 126.139L294.353 126.139C309.277 126.139 316.739 126.139 322.691 128.397C332.045 131.946 339.429 139.36 342.964 148.752C345.213 154.728 345.213 162.22 345.213 177.204V685.294C345.213 700.278 345.213 707.77 342.964 713.746C339.429 723.138 332.045 730.552 322.691 734.101C316.739 736.359 309.277 736.359 294.353 736.359H115.166C100.242 736.359 92.7797 736.359 86.8283 734.101C77.4741 730.552 70.0899 723.138 66.5552 713.746C64.3064 707.77 64.3064 700.278 64.3064 685.294V177.204C64.3064 162.22 64.3064 154.728 66.5552 148.752C70.0899 139.36 77.4741 131.946 86.8283 128.397C92.7797 126.139 100.242 126.139 115.166 126.139L124.713 126.139C126.964 126.139 128.789 127.972 128.789 130.232Z" fill="#121515"/>
<rect x="293.33" y="112" width="4.44705" height="3.72085" fill="#414141"/>
<rect x="355.589" y="175.999" width="3.70594" height="4.46502" fill="#414141"/>
<rect x="50.2236" y="175.999" width="3.70589" height="4.46502" fill="#414141"/>
<path fill-rule="evenodd" clip-rule="evenodd" d="M236.259 141.767C239.534 141.767 242.188 139.101 242.188 135.813C242.188 132.526 239.534 129.86 236.259 129.86C232.984 129.86 230.33 132.526 230.33 135.813C230.33 139.101 232.984 141.767 236.259 141.767Z" fill="#262C2D"/>
<path fill-rule="evenodd" clip-rule="evenodd" d="M236.258 139.534C238.305 139.534 239.964 137.868 239.964 135.813C239.964 133.758 238.305 132.093 236.258 132.093C234.212 132.093 232.552 133.758 232.552 135.813C232.552 137.868 234.212 139.534 236.258 139.534Z" fill="#121515"/>
<path opacity="0.4" fill-rule="evenodd" clip-rule="evenodd" d="M236.259 135.07C236.669 135.07 237.001 134.737 237.001 134.325C237.001 133.914 236.669 133.581 236.259 133.581C235.85 133.581 235.518 133.914 235.518 134.325C235.518 134.737 235.85 135.07 236.259 135.07Z" fill="#636F73"/>
<path fill-rule="evenodd" clip-rule="evenodd" d="M186.601 135.813C186.601 134.58 187.6 133.581 188.833 133.581H220.686C221.919 133.581 222.918 134.58 222.918 135.813C222.918 137.046 221.919 138.046 220.686 138.046H188.833C187.6 138.046 186.601 137.046 186.601 135.813Z" fill="#262C2D"/>
<g filter="url(#filter0_dd_222_330)">
<g clip-path="url(#clip1_222_330)">
<rect width="281.69" height="609.953" transform="translate(229.775 62.2722)" fill="white"/>
<path opacity="0.35" d="M482.545 77.2956C482.545 76.3967 483.273 75.6681 484.172 75.6681H496.692C497.591 75.6681 498.319 76.3967 498.319 77.2956V81.8027C498.319 82.7015 497.591 83.4302 496.692 83.4302H484.172C483.273 83.4302 482.545 82.7015 482.545 81.8027V77.2956Z" stroke="black" stroke-width="0.751174"/>
<path opacity="0.4" d="M499.446 78.0469V81.0516C500.051 80.7971 500.444 80.2051 500.444 79.5492C500.444 78.8933 500.051 78.3014 499.446 78.0469Z" fill="black"/>
<path d="M483.671 77.7965C483.671 77.2433 484.12 76.7949 484.673 76.7949H496.191C496.744 76.7949 497.193 77.2433 497.193 77.7965V81.302C497.193 81.8551 496.744 82.3035 496.191 82.3035H484.673C484.12 82.3035 483.671 81.8551 483.671 81.302V77.7965Z" fill="black"/>
<path fill-rule="evenodd" clip-rule="evenodd" d="M472.652 77.0012C474.316 77.0013 475.917 77.6408 477.124 78.7877C477.214 78.8763 477.36 78.8752 477.449 78.7852L478.317 77.9089C478.363 77.8633 478.388 77.8015 478.388 77.7372C478.387 77.6729 478.361 77.6114 478.315 77.5663C475.149 74.5319 470.154 74.5319 466.988 77.5663C466.942 77.6114 466.916 77.6728 466.915 77.7371C466.915 77.8014 466.94 77.8632 466.985 77.9089L467.854 78.7852C467.943 78.8753 468.089 78.8764 468.18 78.7877C469.386 77.6408 470.987 77.0012 472.652 77.0012ZM472.652 79.8524C473.566 79.8524 474.448 80.1923 475.126 80.8062C475.218 80.8933 475.362 80.8914 475.452 80.8019L476.319 79.9255C476.365 79.8796 476.39 79.8172 476.39 79.7524C476.389 79.6876 476.362 79.6258 476.316 79.5808C474.251 77.6605 471.054 77.6605 468.99 79.5808C468.943 79.6258 468.917 79.6876 468.916 79.7525C468.915 79.8173 468.941 79.8796 468.987 79.9255L469.854 80.8019C469.943 80.8914 470.088 80.8933 470.179 80.8062C470.857 80.1927 471.738 79.8528 472.652 79.8524ZM474.389 81.7708C474.391 81.8358 474.365 81.8984 474.319 81.9439L472.818 83.4581C472.774 83.5026 472.714 83.5276 472.652 83.5276C472.589 83.5276 472.529 83.5026 472.485 83.4581L470.985 81.9439C470.938 81.8984 470.913 81.8357 470.914 81.7707C470.916 81.7057 470.944 81.6442 470.992 81.6007C471.95 80.7902 473.354 80.7902 474.312 81.6007C474.36 81.6442 474.388 81.7058 474.389 81.7708Z" fill="black"/>
<path fill-rule="evenodd" clip-rule="evenodd" d="M462.388 75.543H461.637C461.222 75.543 460.886 75.8793 460.886 76.2941V82.8043C460.886 83.2192 461.222 83.5555 461.637 83.5555H462.388C462.803 83.5555 463.139 83.2192 463.139 82.8043V76.2941C463.139 75.8793 462.803 75.543 462.388 75.543ZM458.131 77.2957H458.883C459.297 77.2957 459.634 77.632 459.634 78.0469V82.8043C459.634 83.2192 459.297 83.5555 458.883 83.5555H458.131C457.717 83.5555 457.38 83.2192 457.38 82.8043V78.0469C457.38 77.632 457.717 77.2957 458.131 77.2957ZM455.377 79.0485H454.626C454.211 79.0485 453.875 79.3848 453.875 79.7996V82.8043C453.875 83.2192 454.211 83.5555 454.626 83.5555H455.377C455.792 83.5555 456.128 83.2192 456.128 82.8043V79.7996C456.128 79.3848 455.792 79.0485 455.377 79.0485ZM451.872 80.5508H451.12C450.706 80.5508 450.369 80.8871 450.369 81.302V82.8043C450.369 83.2192 450.706 83.5555 451.12 83.5555H451.872C452.286 83.5555 452.623 83.2192 452.623 82.8043V81.302C452.623 80.8871 452.286 80.5508 451.872 80.5508Z" fill="black"/>
<path d="M257.809 83.4976C259.828 83.4976 261.028 81.9186 261.028 79.2448C261.028 78.238 260.835 77.3907 260.466 76.736C259.933 75.7181 259.014 75.168 257.853 75.168C256.125 75.168 254.904 76.3288 254.904 77.9574C254.904 79.4869 256.004 80.5982 257.517 80.5982C258.447 80.5982 259.201 80.1636 259.575 79.4098H259.592C259.592 79.4098 259.614 79.4098 259.619 79.4098C259.63 79.4098 259.669 79.4098 259.669 79.4098C259.669 81.2254 258.981 82.3093 257.82 82.3093C257.138 82.3093 256.61 81.9351 256.428 81.3354H255.014C255.251 82.6394 256.357 83.4976 257.809 83.4976ZM257.858 79.4703C256.945 79.4703 256.296 78.8211 256.296 77.9133C256.296 77.0276 256.978 76.3508 257.864 76.3508C258.75 76.3508 259.432 77.0386 259.432 77.9354C259.432 78.8211 258.766 79.4703 257.858 79.4703Z" fill="black"/>
<path d="M263.349 83.4206C263.872 83.4206 264.23 83.0465 264.23 82.5513C264.23 82.0507 263.872 81.6821 263.349 81.6821C262.832 81.6821 262.469 82.0507 262.469 82.5513C262.469 83.0465 262.832 83.4206 263.349 83.4206ZM263.349 79.2943C263.872 79.2943 264.23 78.9257 264.23 78.4305C264.23 77.9299 263.872 77.5612 263.349 77.5612C262.832 77.5612 262.469 77.9299 262.469 78.4305C262.469 78.9257 262.832 79.2943 263.349 79.2943Z" fill="black"/>
<path d="M269.38 83.3051H270.739V81.8251H271.811V80.6257H270.739V75.366H268.736C267.333 77.4787 266.216 79.2448 265.501 80.5597V81.8251H269.38V83.3051ZM266.816 80.5762C267.74 78.9477 268.565 77.6438 269.325 76.5214H269.402V80.6587H266.816V80.5762Z" fill="black"/>
<path d="M274.838 83.3051H276.257V75.366H274.843L272.769 76.8185V78.1829L274.744 76.7965H274.838V83.3051Z" fill="black"/>
</g>
<path d="M525.294 211.717H526.406C527.02 211.717 527.517 212.217 527.517 212.834V285.762C527.517 286.379 527.02 286.878 526.406 286.878H525.294V211.717Z" fill="#303030"/>
<path d="M216.223 302.506L215.111 302.506C214.497 302.506 213.999 302.006 213.999 301.39L213.999 257.484C213.999 256.867 214.497 256.368 215.111 256.368L216.223 256.368L216.223 302.506Z" fill="#303030"/>
<path d="M216.223 241.484L215.111 241.484C214.497 241.484 213.999 240.984 213.999 240.368L213.999 196.462C213.999 195.845 214.497 195.345 215.111 195.345L216.223 195.345L216.223 241.484Z" fill="#333333"/>
<path d="M216.223 173.021L215.111 173.021C214.497 173.021 213.999 172.521 213.999 171.904L213.999 150.323C213.999 149.707 214.497 149.207 215.111 149.207L216.223 149.207L216.223 173.021Z" fill="#333333"/>
<path fill-rule="evenodd" clip-rule="evenodd" d="M218.58 81.4236C216.223 88.7098 216.223 97.713 216.223 115.719V618.778C216.223 636.785 216.223 645.788 218.58 653.074C223.346 667.8 234.845 679.345 249.512 684.13C256.769 686.498 265.736 686.498 283.67 686.498H457.846C475.78 686.498 484.747 686.498 492.004 684.13C506.671 679.345 518.17 667.8 522.936 653.074C525.293 645.788 525.293 636.785 525.293 618.778V115.719C525.293 97.713 525.293 88.7098 522.936 81.4236C518.17 66.6976 506.671 55.1522 492.004 50.3674C484.747 48 475.78 48 457.846 48H283.67C265.736 48 256.769 48 249.512 50.3674C234.845 55.1522 223.346 66.6976 218.58 81.4236ZM294.788 66.2322V69.5809L294.841 69.5793L294.788 69.953C294.788 78.7894 301.922 85.9526 310.723 85.9526H430.794C439.595 85.9526 446.729 78.7894 446.729 69.953L446.676 69.5793L446.729 69.5809V66.2322C446.729 63.9717 448.554 62.1392 450.805 62.1392L460.352 62.1392C475.276 62.1392 482.738 62.1392 488.69 64.3971C498.044 67.9461 505.428 75.36 508.963 84.7521C511.211 90.7274 511.211 98.2197 511.211 113.204V621.294C511.211 636.278 511.211 643.77 508.963 649.746C505.428 659.138 498.044 666.552 488.69 670.101C482.738 672.358 475.276 672.358 460.352 672.358H281.165C266.241 672.358 258.779 672.358 252.827 670.101C243.473 666.552 236.089 659.138 232.554 649.746C230.305 643.77 230.305 636.278 230.305 621.294V113.204C230.305 98.2197 230.305 90.7274 232.554 84.7521C236.089 75.36 243.473 67.9461 252.827 64.3971C258.779 62.1392 266.241 62.1392 281.165 62.1392L290.711 62.1392C292.963 62.1392 294.788 63.9717 294.788 66.2322Z" fill="#333333"/>
<path fill-rule="evenodd" clip-rule="evenodd" d="M458.143 49.4886H283.374C265.658 49.4886 256.976 49.4977 249.97 51.7832C235.755 56.4207 224.61 67.6108 219.991 81.8837C217.714 88.9175 217.705 97.6347 217.705 115.422V619.076C217.705 636.863 217.714 645.581 219.991 652.614C224.61 666.887 235.755 678.077 249.97 682.715C256.976 685 265.658 685.009 283.374 685.009H458.143C475.859 685.009 484.541 685 491.547 682.715C505.762 678.077 516.907 666.887 521.526 652.614C523.803 645.581 523.812 636.863 523.812 619.076V115.422C523.812 97.6347 523.803 88.9175 521.526 81.8837C516.907 67.6108 505.762 56.4207 491.547 51.7832C484.541 49.4977 475.859 49.4886 458.143 49.4886ZM219.286 81.6537C216.964 88.8279 216.964 97.6926 216.964 115.422V619.076C216.964 636.805 216.964 645.67 219.286 652.844C223.978 667.344 235.3 678.711 249.741 683.423C256.886 685.754 265.716 685.754 283.374 685.754H458.143C475.801 685.754 484.63 685.754 491.776 683.423C506.217 678.711 517.539 667.344 522.231 652.844C524.553 645.67 524.553 636.805 524.553 619.076V115.422C524.553 97.6926 524.553 88.8279 522.231 81.6537C517.539 67.1543 506.217 55.7866 491.776 51.0754C484.63 48.7444 475.801 48.7444 458.143 48.7444H283.374C265.716 48.7444 256.886 48.7444 249.741 51.0754C235.3 55.7866 223.978 67.1543 219.286 81.6537Z" fill="#303030"/>
<path fill-rule="evenodd" clip-rule="evenodd" d="M222.107 82.5735C219.93 89.2992 219.93 97.6099 219.93 114.231V620.267C219.93 636.888 219.93 645.199 222.107 651.924C226.506 665.518 237.12 676.175 250.659 680.591C257.358 682.777 265.635 682.777 282.189 682.777H459.331C475.885 682.777 484.162 682.777 490.861 680.591C504.4 676.175 515.014 665.518 519.413 651.924C521.59 645.199 521.59 636.888 521.59 620.267V114.231C521.59 97.6099 521.59 89.2992 519.413 82.5735C515.014 68.9803 504.4 58.323 490.861 53.9063C484.162 51.7209 475.885 51.7209 459.331 51.7209H282.189C265.635 51.7209 257.358 51.7209 250.659 53.9063C237.12 58.323 226.506 68.9803 222.107 82.5735ZM294.789 66.2323V69.581L294.842 69.5794L294.789 69.9531C294.789 78.7894 301.923 85.9527 310.724 85.9527H430.795C439.596 85.9527 446.73 78.7894 446.73 69.9531L446.677 69.5794L446.73 69.581V66.2323C446.73 63.9718 448.555 62.1393 450.806 62.1393L460.353 62.1393C475.277 62.1393 482.739 62.1393 488.691 64.3972C498.045 67.9462 505.429 75.3601 508.964 84.7522C511.213 90.7275 511.213 98.2198 511.213 113.204V621.294C511.213 636.278 511.213 643.77 508.964 649.746C505.429 659.138 498.045 666.552 488.691 670.101C482.739 672.359 475.277 672.359 460.353 672.359H281.166C266.242 672.359 258.78 672.359 252.828 670.101C243.474 666.552 236.09 659.138 232.555 649.746C230.306 643.77 230.306 636.278 230.306 621.294V113.204C230.306 98.2198 230.306 90.7275 232.555 84.7522C236.09 75.3601 243.474 67.9462 252.828 64.3972C258.78 62.1393 266.242 62.1393 281.166 62.1393L290.713 62.1393C292.964 62.1393 294.789 63.9718 294.789 66.2323Z" fill="#121515"/>
<rect x="459.33" y="48" width="4.44705" height="3.72085" fill="#414141"/>
<rect x="521.589" y="111.999" width="3.70594" height="4.46502" fill="#414141"/>
<rect x="216.224" y="111.999" width="3.70589" height="4.46502" fill="#414141"/>
<path fill-rule="evenodd" clip-rule="evenodd" d="M402.259 77.7668C405.534 77.7668 408.188 75.1014 408.188 71.8135C408.188 68.5255 405.534 65.8601 402.259 65.8601C398.984 65.8601 396.33 68.5255 396.33 71.8135C396.33 75.1014 398.984 77.7668 402.259 77.7668Z" fill="#262C2D"/>
<path fill-rule="evenodd" clip-rule="evenodd" d="M402.258 75.5342C404.305 75.5342 405.964 73.8683 405.964 71.8134C405.964 69.7584 404.305 68.0925 402.258 68.0925C400.212 68.0925 398.552 69.7584 398.552 71.8134C398.552 73.8683 400.212 75.5342 402.258 75.5342Z" fill="#121515"/>
<path opacity="0.4" fill-rule="evenodd" clip-rule="evenodd" d="M402.259 71.0698C402.669 71.0698 403.001 70.7365 403.001 70.3253C403.001 69.9141 402.669 69.5808 402.259 69.5808C401.85 69.5808 401.518 69.9141 401.518 70.3253C401.518 70.7365 401.85 71.0698 402.259 71.0698Z" fill="#636F73"/>
<path fill-rule="evenodd" clip-rule="evenodd" d="M352.601 71.8133C352.601 70.5803 353.6 69.5808 354.833 69.5808H386.686C387.919 69.5808 388.918 70.5803 388.918 71.8133C388.918 73.0463 387.919 74.0458 386.686 74.0458H354.833C353.6 74.0458 352.601 73.0463 352.601 71.8133Z" fill="#262C2D"/>
</g>
<defs>
<filter id="filter0_dd_222_330" x="192.966" y="26.9671" width="404.132" height="730.141" filterUnits="userSpaceOnUse" color-interpolation-filters="sRGB">
<feFlood flood-opacity="0" result="BackgroundImageFix"/>
<feColorMatrix in="SourceAlpha" type="matrix" values="0 0 0 0 0 0 0 0 0 0 0 0 0 0 0 0 0 0 127 0" result="hardAlpha"/>
<feMorphology radius="1.50235" operator="erode" in="SourceAlpha" result="effect1_dropShadow_222_330"/>
<feOffset dx="12.0188" dy="12.0188"/>
<feGaussianBlur stdDeviation="12.0188"/>
<feColorMatrix type="matrix" values="0 0 0 0 0.0627451 0 0 0 0 0.0941176 0 0 0 0 0.156863 0 0 0 0.08 0"/>
<feBlend mode="normal" in2="BackgroundImageFix" result="effect1_dropShadow_222_330"/>
<feColorMatrix in="SourceAlpha" type="matrix" values="0 0 0 0 0 0 0 0 0 0 0 0 0 0 0 0 0 0 127 0" result="hardAlpha"/>
<feMorphology radius="3.00469" operator="erode" in="SourceAlpha" result="effect2_dropShadow_222_330"/>
<feOffset dx="24.0376" dy="24.0376"/>
<feGaussianBlur stdDeviation="24.0376"/>
<feColorMatrix type="matrix" values="0 0 0 0 0.0627451 0 0 0 0 0.0941176 0 0 0 0 0.156863 0 0 0 0.2 0"/>
<feBlend mode="normal" in2="effect1_dropShadow_222_330" result="effect2_dropShadow_222_330"/>
<feBlend mode="normal" in="SourceGraphic" in2="effect2_dropShadow_222_330" result="shape"/>
</filter>
<clipPath id="clip0_222_330">
<rect width="281.69" height="609.953" fill="white" transform="translate(63.7747 126.272)"/>
</clipPath>
<clipPath id="clip1_222_330">
<rect width="281.69" height="609.953" fill="white" transform="translate(229.775 62.2722)"/>
</clipPath>
</defs>
</svg>
